<?xml version="1.0" encoding="iso-8859-1"?>
<!-- Generator: Adobe Illustrator 19.0.0, SVG Export Plug-In . SVG Version: 6.00 Build 0)  -->
<svg version="1.1" id="Capa_1" xmlns="http://www.w3.org/2000/svg" xmlns:xlink="http://www.w3.org/1999/xlink" x="0px" y="0px"
	 viewBox="0 0 512.024 512.024" style="enable-background:new 0 0 512.024 512.024;" xml:space="preserve" fill="#ffffff">
<g>
	<g>
		<path d="M416.012,0H104.46H87.564h-7.552l1.344,0.64C44.78,3.84,16.012,34.176,16.012,71.552V192h128v304
			c0,5.312,2.656,10.272,7.04,13.248c4.384,2.976,9.984,3.552,14.912,1.6l74.048-29.632l74.048,29.632
			c3.808,1.568,8.064,1.568,11.872,0l74.08-29.632l74.048,29.632c1.92,0.768,3.968,1.152,5.952,1.152
			c3.168,0,6.272-0.928,8.96-2.752c4.416-2.976,7.04-7.936,7.04-13.248V80C496.012,35.904,460.14,0,416.012,0z M144.012,96v64h-96
			V71.552C48.012,49.76,65.772,32,87.564,32h16.896c21.792,0,39.552,17.76,39.552,39.552V96z M416.012,384h-128
			c-8.832,0-16-7.168-16-16c0-8.832,7.168-16,16-16h128c8.832,0,16,7.168,16,16C432.012,376.832,424.844,384,416.012,384z
			 M416.012,320h-128c-8.832,0-16-7.168-16-16c0-8.832,7.168-16,16-16h128c8.832,0,16,7.168,16,16
			C432.012,312.832,424.844,320,416.012,320z M416.012,256h-192c-8.832,0-16-7.168-16-16c0-8.832,7.168-16,16-16h192
			c8.832,0,16,7.168,16,16C432.012,248.832,424.844,256,416.012,256z M416.012,128h-192c-8.832,0-16-7.168-16-16
			c0-8.832,7.168-16,16-16h192c8.832,0,16,7.168,16,16C432.012,120.832,424.844,128,416.012,128z"/>
	</g>
</g>
<g>
</g>
<g>
</g>
<g>
</g>
<g>
</g>
<g>
</g>
<g>
</g>
<g>
</g>
<g>
</g>
<g>
</g>
<g>
</g>
<g>
</g>
<g>
</g>
<g>
</g>
<g>
</g>
<g>
</g>
</svg>
